# xmcd
#
# Track frame offsets: 
#        150
#        3492
#        3967
#        27260
#        29952
#        34875
#        41095
#        44497
#        53442
#        56232
#        63905
#        64840
#        83550
#        93440
#        103010
#        114517
#        119725
#        120925
#        130697
#        148350
#        172070
#        176687
#        190607
#        206790
#        227942
#        260717
#        263542
#        273775
#        274360
#
# Disc length: 3888 seconds
#
# Revision: 2
# Processed by: cddbd v1.5.2PL0 Copyright (c) Steve Scherf et al.
# Submitted via: ExactAudioCopy v0.99pb4
#
DISCID=ad0f2e1d
DTITLE=Thom Bresh - Live and Picking
DYEAR=1900
DGENRE=Country
TTITLE0=The Promoter
TTITLE1=The Intro
TTITLE2=Hanging with the Girls I Know - Jelly Roll Blues - Merle and Tho
TTITLE2=m's Boogie
TTITLE3=Merle Travis Medley
TTITLE4=Nine Pound Hammer
TTITLE5=Dark as a Dungeon
TTITLE6=Intro Smoke Smoke Smoke
TTITLE7=Smoke Smoke Smoke
TTITLE8=Intro 16 Tons
TTITLE9=16 Tons
TTITLE10=Intro Guitar in the Window
TTITLE11=Guitar in the Window
TTITLE12=Intro My Band
TTITLE13=Sidewalks of Bordeaux
TTITLE14=Malaguena
TTITLE15=Cannon Ball Rag
TTITLE16=Intro Dueling Banjos
TTITLE17=Dueling Banjos
TTITLE18=Ageless Timeless Love
TTITLE19=Poke Salad Annie
TTITLE20=Intro Buster B Jones
TTITLE21=Peanut Butter and Jelly
TTITLE22=Schizoid Guitar
TTITLE23=Back To You
TTITLE24=Achy Breaky Voices
TTITLE25=The Gag Title
TTITLE26=Long Lost John (From Bowling Green)
TTITLE27=Goodbye
TTITLE28=Thats All
EXTD=
EXTT0=
EXTT1=
EXTT2=
EXTT3=
EXTT4=
EXTT5=
EXTT6=
EXTT7=
EXTT8=
EXTT9=
EXTT10=
EXTT11=
EXTT12=
EXTT13=
EXTT14=
EXTT15=
EXTT16=
EXTT17=
EXTT18=
EXTT19=
EXTT20=
EXTT21=
EXTT22=
EXTT23=
EXTT24=
EXTT25=
EXTT26=
EXTT27=
EXTT28=
PLAYORDER=
